<mxfile host="app.diagrams.net" modified="2023-04-09T11:56:50.197Z" agent="Mozilla/5.0 (Windows NT 10.0; Win64; x64) AppleWebKit/537.36 (KHTML, like Gecko) Chrome/112.0.0.0 Safari/537.36 Edg/112.0.1722.34" etag="Vx_c5vUozEN9SDIIkNp4" version="21.1.5" type="device">
  <diagram name="第 1 页" id="CvGKExRQpRdG9nXAUTuZ">
    <mxGraphModel dx="880" dy="452" grid="1" gridSize="10" guides="1" tooltips="1" connect="1" arrows="1" fold="1" page="1" pageScale="1" pageWidth="827" pageHeight="1169" math="0" shadow="0">
      <root>
        <mxCell id="0" />
        <mxCell id="1" parent="0" />
        <mxCell id="YS4cXqVnbFB_LND7pHWG-1" value="" style="rounded=0;whiteSpace=wrap;html=1;" vertex="1" parent="1">
          <mxGeometry x="30" y="50" width="180" height="190" as="geometry" />
        </mxCell>
        <mxCell id="YS4cXqVnbFB_LND7pHWG-2" value="" style="rounded=0;whiteSpace=wrap;html=1;" vertex="1" parent="1">
          <mxGeometry x="220" y="40" width="180" height="210" as="geometry" />
        </mxCell>
        <mxCell id="YS4cXqVnbFB_LND7pHWG-3" value="&lt;div style=&quot;&quot;&gt;&lt;br&gt;&lt;/div&gt;" style="whiteSpace=wrap;html=1;align=left;" vertex="1" parent="1">
          <mxGeometry x="240" y="50" width="150" height="90" as="geometry" />
        </mxCell>
        <mxCell id="YS4cXqVnbFB_LND7pHWG-4" value="堆" style="text;html=1;align=center;verticalAlign=middle;resizable=0;points=[];autosize=1;strokeColor=none;fillColor=none;" vertex="1" parent="1">
          <mxGeometry x="228" y="45" width="40" height="30" as="geometry" />
        </mxCell>
        <mxCell id="YS4cXqVnbFB_LND7pHWG-5" value="栈" style="text;html=1;align=center;verticalAlign=middle;resizable=0;points=[];autosize=1;strokeColor=none;fillColor=none;" vertex="1" parent="1">
          <mxGeometry x="95" y="250" width="40" height="30" as="geometry" />
        </mxCell>
        <mxCell id="YS4cXqVnbFB_LND7pHWG-6" value="" style="rounded=0;whiteSpace=wrap;html=1;" vertex="1" parent="1">
          <mxGeometry x="240" y="170" width="120" height="60" as="geometry" />
        </mxCell>
        <mxCell id="YS4cXqVnbFB_LND7pHWG-7" value="字符串常量池" style="text;html=1;align=center;verticalAlign=middle;resizable=0;points=[];autosize=1;strokeColor=none;fillColor=none;" vertex="1" parent="1">
          <mxGeometry x="215" y="170" width="100" height="30" as="geometry" />
        </mxCell>
        <mxCell id="YS4cXqVnbFB_LND7pHWG-20" style="edgeStyle=orthogonalEdgeStyle;rounded=0;orthogonalLoop=1;jettySize=auto;html=1;" edge="1" parent="1" source="YS4cXqVnbFB_LND7pHWG-8" target="YS4cXqVnbFB_LND7pHWG-10">
          <mxGeometry relative="1" as="geometry" />
        </mxCell>
        <mxCell id="YS4cXqVnbFB_LND7pHWG-8" value="String str1 = &quot;abc&quot;" style="text;html=1;align=center;verticalAlign=middle;resizable=0;points=[];autosize=1;strokeColor=none;fillColor=none;" vertex="1" parent="1">
          <mxGeometry x="50" y="185" width="120" height="30" as="geometry" />
        </mxCell>
        <mxCell id="YS4cXqVnbFB_LND7pHWG-9" value="abc" style="text;html=1;align=center;verticalAlign=middle;resizable=0;points=[];autosize=1;strokeColor=none;fillColor=none;" vertex="1" parent="1">
          <mxGeometry x="275" y="200" width="40" height="30" as="geometry" />
        </mxCell>
        <mxCell id="YS4cXqVnbFB_LND7pHWG-10" value="0x1122:" style="text;html=1;align=center;verticalAlign=middle;resizable=0;points=[];autosize=1;strokeColor=none;fillColor=none;" vertex="1" parent="1">
          <mxGeometry x="228" y="200" width="70" height="30" as="geometry" />
        </mxCell>
        <mxCell id="YS4cXqVnbFB_LND7pHWG-19" style="edgeStyle=orthogonalEdgeStyle;rounded=0;orthogonalLoop=1;jettySize=auto;html=1;" edge="1" parent="1" source="YS4cXqVnbFB_LND7pHWG-11" target="YS4cXqVnbFB_LND7pHWG-16">
          <mxGeometry relative="1" as="geometry" />
        </mxCell>
        <mxCell id="YS4cXqVnbFB_LND7pHWG-11" value="String str2 = new String(&quot;abc&quot;)" style="text;html=1;align=center;verticalAlign=middle;resizable=0;points=[];autosize=1;strokeColor=none;fillColor=none;" vertex="1" parent="1">
          <mxGeometry x="30" y="110" width="180" height="30" as="geometry" />
        </mxCell>
        <mxCell id="YS4cXqVnbFB_LND7pHWG-13" value="" style="whiteSpace=wrap;html=1;" vertex="1" parent="1">
          <mxGeometry x="257.5" y="60" width="115" height="50" as="geometry" />
        </mxCell>
        <mxCell id="YS4cXqVnbFB_LND7pHWG-15" value="&lt;br style=&quot;border-color: var(--border-color);&quot;&gt;char[] avlue:0x1122" style="text;html=1;align=center;verticalAlign=middle;resizable=0;points=[];autosize=1;strokeColor=none;fillColor=none;" vertex="1" parent="1">
          <mxGeometry x="250" y="50" width="130" height="40" as="geometry" />
        </mxCell>
        <mxCell id="YS4cXqVnbFB_LND7pHWG-16" value="0x3344" style="text;html=1;align=center;verticalAlign=middle;resizable=0;points=[];autosize=1;strokeColor=none;fillColor=none;" vertex="1" parent="1">
          <mxGeometry x="215" y="75" width="60" height="30" as="geometry" />
        </mxCell>
      </root>
    </mxGraphModel>
  </diagram>
</mxfile>
